<?xml version="1.0" encoding="UTF-8"?>
<!-- THALOS logo — versión NAVY para PDFs (fondo blanco).
     Mismos paths del logo oficial pero con fill="#0f172a" directamente,
     sin filtros feColorMatrix (svglib no los soporta). -->
<svg xmlns="http://www.w3.org/2000/svg" version="1.0"
     viewBox="50.991496887207035 95.44612487792969 238.01700622558593 59.107750244140625"
     preserveAspectRatio="xMidYMid meet">
<g fill="#0f172a" transform="translate(69.81976318359375,97.77962493896484)">
  <!-- T -->
  <g transform="translate(0, 1.1783638256873843)">
    <path d="M19.30 0L10.70 0L10.70-27.81L0.59-27.81L0.59-34.44L29.41-34.44L29.41-27.81L19.30-27.81L19.30 0Z" transform="translate(-0.5882352941176471, 34.97326203208556)"/>
  </g>
  <!-- H -->
  <g transform="translate(32, 1.1783638256873843)">
    <path d="M11.34 0L2.73 0L2.73-34.44L11.34-34.44L11.34-20.80L24.81-20.80L24.81-34.44L33.42-34.44L33.42 0L24.81 0L24.81-13.64L11.34-13.64L11.34 0Z" transform="translate(-2.7272727272727266, 34.97326203208556)"/>
  </g>
  <!-- A -->
  <g transform="translate(66, 1.1783638256873843)">
    <path d="M10.64 0L1.66 0L14.81-34.44L24.12-34.44L37.27 0L28.29 0L25.19-7.81L13.69-7.81L10.64 0ZM19.41-26.15L14.87-14.17L24.01-14.17L19.41-26.15Z" transform="translate(-1.6577540106951871, 34.97326203208556)"/>
  </g>
  <!-- L -->
  <g transform="translate(105, 1.1783638256873843)">
    <path d="M27.59 0L2.73 0L2.73-34.44L11.34-34.44L11.34-6.63L27.59-6.63L27.59 0Z" transform="translate(-2.727272727272727, 34.97326203208556)"/>
  </g>
  <!-- Globo (O) — paths originales con fill navy directo -->
  <g transform="translate(133, 0)">
    <g transform="matrix(0.26 0 0 0.26 5.93 5.93) translate(15.5 15.5)">
      <path d="M-15.65 52.89c5.88 0 13.43-.8 20.54-.5a58.7 58.7 0 0 1 20.45 4.03A138.14 138.14 0 0 1 44.4 66.2c1.64.93 3.29 1.78 4.99 2.76s3.44 1.78 5.24 2.69c3.67 1.79 7.49 3.26 11.42 4.4 4.16 1.14 8.44 1.73 12.75 1.78 4.59.06 9.18-.46 13.64-1.55a68.521 68.521 0 0 0 25.1-11.83c.94-.71 1.78-1.42 2.69-2.16.37-2.1.64-4.22.82-6.38-1.07.46-2.24.94-3.56 1.39a97.432 97.432 0 0 1-23.15 5.34c-4.09.42-8.2.54-12.31.36-3.93-.18-7.83-.67-11.68-1.46-3.69-.76-7.31-1.83-10.83-3.19-1.78-.68-3.44-1.41-5.11-2.16-1.67-.75-3.33-1.57-4.97-2.37a94.778 94.778 0 0 0-20.04-8.14 61.916 61.916 0 0 0-22.66-.84c-10.8 1.6-22.05 5.16-27.98 5.73v1.99c1.85.27 3.72.38 5.59.33z"/>
      <path d="M33.53 35.33a90.408 90.408 0 0 1 19.91 10.19l4.63 2.92c1.55.98 3.08 1.92 4.67 2.81 3.11 1.85 6.37 3.42 9.76 4.7 3.51 1.26 7.19 2.02 10.92 2.24 3.97.24 7.96-.01 11.88-.73 7.69-1.5 15.19-3.81 22.39-6.91l3.56-1.5c0-1.78-.12-3.56-.28-5.34-.96-.14-2.03-.27-3.13-.36-5.65-.41-12.68-.18-19.47-.57-3.4-.18-6.8-.48-10.15-.93-3.35-.45-6.68-1-9.99-1.78-3.35-.72-6.64-1.66-9.87-2.81-1.61-.59-3.25-1.22-4.92-1.87l-4.97-2.14a107.46 107.46 0 0 0-21.84-7.53 67.307 67.307 0 0 0-25.81.05A75.238 75.238 0 0 0-20.5 39.69c-.09.62-.18 1.25-.25 1.78a77.033 77.033 0 0 1 30.28-8.91c8.11-.77 16.28.18 24 2.77zM50 121.25c20.97.02 40.88-9.21 54.41-25.24a71.492 71.492 0 0 1-10.9 4.9c-4.24 1.46-8.57 2.65-12.97 3.56-4.26.93-8.39 1.66-12.47 2.32s-8.12 1.21-12.2 1.53c-2.05.12-4.11.21-6.18.25s-4.19-.11-6.29-.25c-8.47-.69-16.8-2.57-24.74-5.61-7.31-2.74-14.34-6.2-20.96-10.33-3.08-1.92-6-3.72-8.73-5.66A71.3 71.3 0 0 0 50 121.25z"/>
      <path d="M19.24 84a207.33 207.33 0 0 0 21.98 9.21c1.96.68 3.95 1.32 5.97 1.91 2.01.59 4.08 1.19 6.16 1.78 4.17 1.01 8.41 1.73 12.68 2.16 4.38.41 8.79.32 13.14-.25 4.64-.61 9.2-1.76 13.57-3.42a67.142 67.142 0 0 0 20.34-12.25c2.05-3.9 3.73-7.97 5.02-12.18l-.43.43a64.346 64.346 0 0 1-25.54 10.19c-4.57.79-9.19 1.22-13.82 1.26-4.41.04-8.82-.21-13.2-.77-4.08-.49-8.13-1.24-12.11-2.26-1.92-.5-3.81-1.05-5.66-1.6-1.85-.56-3.56-1.21-5.34-1.79-7.12-2.51-13.73-5.02-20.34-6.79-6.52-1.62-13.17-2.61-19.88-2.97-6.57-.5-13.29-.39-18.7-1.96-1.02-.28-2.02-.65-2.97-1.1.23 1.16.48 2.3.75 3.44.59.41 1.21.8 1.78 1.18 5.17 3.03 11.38 4.72 17.44 7.25 6.05 2.51 12.37 5.19 19.16 8.53zM-12.6 23.96a56.768 56.768 0 0 1 24.69-10.1 66.52 66.52 0 0 1 26.29.94c7.82 1.88 15.4 4.68 22.57 8.34l5.09 2.55 4.84 2.58c3.17 1.78 6.29 3.29 9.39 4.68a45.15 45.15 0 0 0 9.51 2.94c3.25.58 6.55.85 9.85.8 6.61 0 13.3-.89 18.54-.41.66 0 1.28.14 1.89.25-.53-2.76-1.23-5.49-2.08-8.18-4.92-3.45-10.11-6.5-15.51-9.12-2.92-1.5-5.93-2.99-9.1-4.33a84.895 84.895 0 0 0-9.92-3.56c-3.42-.94-6.96-1.78-10.69-2.69-1.82-.43-3.65-.84-5.5-1.23-1.78-.43-3.74-.84-5.63-1.21-7.8-1.68-15.75-2.64-23.72-2.87a84.819 84.819 0 0 0-25.83 3.58 65.278 65.278 0 0 0-24.42 13.84 47.369 47.369 0 0 0-4.6 4.9c-.39 1.09-.77 2.19-1.1 3.29 1.63-1.85 3.45-3.52 5.44-4.99z"/>
      <path d="M59.42-8.93c2.12.52 4.24 1.12 6.32 1.78 2.08.66 4.15 1.53 6.18 2.39 3.99 1.75 7.87 3.73 11.63 5.93 3.67 2.07 7.12 4.08 10.37 5.86s6.34 3.38 9.28 4.86c3.56 1.78 7.04 3.56 10.15 5.47-18.03-34.97-61-48.71-95.97-30.68A71.202 71.202 0 0 0-.85.13c3.56-2.38 7.36-4.4 11.33-6.02a72.011 72.011 0 0 0 23.92-5.18c8.4-.51 16.83.21 25.02 2.14z"/>
    </g>
  </g>
  <!-- S -->
  <g transform="translate(174, 1.1783638256873843)">
    <path d="M13.69 0.53L13.69 0.53Q10.27 0.53 7.30 0.03Q4.33-0.48 2.19-1.44L2.19-1.44L2.19-8.77Q4.55-7.75 7.41-7.11Q10.27-6.47 12.83-6.47L12.83-6.47Q16.04-6.47 17.62-7.06Q19.20-7.65 19.20-9.63L19.20-9.63Q19.20-10.96 18.42-11.76Q17.65-12.57 15.91-13.18Q14.17-13.80 11.18-14.65L11.18-14.65Q7.65-15.72 5.56-17.03Q3.48-18.34 2.57-20.21Q1.66-22.09 1.66-24.81L1.66-24.81Q1.66-29.73 5.19-32.35Q8.72-34.97 15.61-34.97L15.61-34.97Q18.61-34.97 21.44-34.52Q24.28-34.06 26.04-33.48L26.04-33.48L26.04-26.10Q23.74-27.01 21.42-27.43Q19.09-27.86 16.90-27.86L16.90-27.86Q14.01-27.86 12.22-27.33Q10.43-26.79 10.43-24.87L10.43-24.87Q10.43-23.74 11.07-23.07Q11.71-22.41 13.29-21.87Q14.87-21.34 17.59-20.59L17.59-20.59Q21.82-19.47 24.06-17.89Q26.31-16.31 27.17-14.25Q28.02-12.19 28.02-9.63L28.02-9.63Q28.02-5.08 24.49-2.27Q20.96 0.53 13.69 0.53Z" transform="translate(-1.657754010695187, 34.97326203208556)"/>
  </g>
</g>
</svg>
