<svg xmlns="http://www.w3.org/2000/svg" xmlns:xlink="http://www.w3.org/1999/xlink" version="1.0" x="0" y="0" width="2400" height="596.0019531187945" viewBox="50.991496887207035 95.44612487792969 238.01700622558593 59.107750244140625" preserveAspectRatio="xMidYMid meet" color-interpolation-filters="sRGB"><g><g fill="#1e3a8a" class="iconlinesvg-g iconlinesvg" transform="translate(69.81976318359375,97.77962493896484)"><g class="tp-name" transform="translate(0,0)"><g transform="translate(0, 1.1783638256873843)"><g fill="#1e3a8a" transform="scale(1)"><path d="M19.30 0L10.70 0L10.70-27.81L0.59-27.81L0.59-34.44L29.41-34.44L29.41-27.81L19.30-27.81L19.30 0Z" transform="translate(-0.5882352941176471, 34.97326203208556)"></path></g></g><g transform="translate(32, 1.1783638256873843)"><g fill="#1e3a8a" transform="scale(1)"><path d="M11.34 0L2.73 0L2.73-34.44L11.34-34.44L11.34-20.80L24.81-20.80L24.81-34.44L33.42-34.44L33.42 0L24.81 0L24.81-13.64L11.34-13.64L11.34 0Z" transform="translate(-2.7272727272727266, 34.97326203208556)"></path></g></g><g transform="translate(66, 1.1783638256873843)"><g fill="#1e3a8a" transform="scale(1)"><path d="M10.64 0L1.66 0L14.81-34.44L24.12-34.44L37.27 0L28.29 0L25.19-7.81L13.69-7.81L10.64 0ZM19.41-26.15L14.87-14.17L24.01-14.17L19.41-26.15Z" transform="translate(-1.6577540106951871, 34.97326203208556)"></path></g></g><g transform="translate(105, 1.1783638256873843)"><g fill="#1e3a8a" transform="scale(1)"><path d="M27.59 0L2.73 0L2.73-34.44L11.34-34.44L11.34-6.63L27.59-6.63L27.59 0Z" transform="translate(-2.727272727272727, 34.97326203208556)"></path></g></g><g transform="translate(133, 0)"><g><g class="imagesvg"><g><rect fill="#1e3a8a" fill-opacity="0" stroke-width="2" x="0" y="0" width="37.86096256684492" height="37.86474904174909" class="image-rect"></rect> <svg x="0" y="0" width="37.86096256684492" height="37.86474904174909" filtersec="colorsf8041438695" class="image-svg-svg primary" style="overflow: visible;"><svg xmlns="http://www.w3.org/2000/svg" viewBox="0.8444002866744995 0.8348337411880493 98.31809997558594 98.32769775390625"><g transform="matrix(.69 0 0 .69 15.5 15.5)"><path fill="#1e3a8a" d="M-15.65 52.89c5.88 0 13.43-.8 20.54-.5a58.7 58.7 0 0 1 20.45 4.03A138.14 138.14 0 0 1 44.4 66.2c1.64.93 3.29 1.78 4.99 2.76s3.44 1.78 5.24 2.69c3.67 1.79 7.49 3.26 11.42 4.4 4.16 1.14 8.44 1.73 12.75 1.78 4.59.06 9.18-.46 13.64-1.55a68.521 68.521 0 0 0 25.1-11.83c.94-.71 1.78-1.42 2.69-2.16.37-2.1.64-4.22.82-6.38-1.07.46-2.24.94-3.56 1.39a97.432 97.432 0 0 1-23.15 5.34c-4.09.42-8.2.54-12.31.36-3.93-.18-7.83-.67-11.68-1.46-3.69-.76-7.31-1.83-10.83-3.19-1.78-.68-3.44-1.41-5.11-2.16-1.67-.75-3.33-1.57-4.97-2.37a94.778 94.778 0 0 0-20.04-8.14 61.916 61.916 0 0 0-22.66-.84c-10.8 1.6-22.05 5.16-27.98 5.73v1.99c1.85.27 3.72.38 5.59.33z"></path><path fill="#1e3a8a" d="M33.53 35.33a90.408 90.408 0 0 1 19.91 10.19l4.63 2.92c1.55.98 3.08 1.92 4.67 2.81 3.11 1.85 6.37 3.42 9.76 4.7 3.51 1.26 7.19 2.02 10.92 2.24 3.97.24 7.96-.01 11.88-.73 7.69-1.5 15.19-3.81 22.39-6.91l3.56-1.5c0-1.78-.12-3.56-.28-5.34-.96-.14-2.03-.27-3.13-.36-5.65-.41-12.68-.18-19.47-.57-3.4-.18-6.8-.48-10.15-.93-3.35-.45-6.68-1-9.99-1.78-3.35-.72-6.64-1.66-9.87-2.81-1.61-.59-3.25-1.22-4.92-1.87l-4.97-2.14a107.46 107.46 0 0 0-21.84-7.53 67.307 67.307 0 0 0-25.81.05A75.238 75.238 0 0 0-20.5 39.69c-.09.62-.18 1.25-.25 1.78a77.033 77.033 0 0 1 30.28-8.91c8.11-.77 16.28.18 24 2.77zM50 121.25c20.97.02 40.88-9.21 54.41-25.24a71.492 71.492 0 0 1-10.9 4.9c-4.24 1.46-8.57 2.65-12.97 3.56-4.26.93-8.39 1.66-12.47 2.32s-8.12 1.21-12.2 1.53c-2.05.12-4.11.21-6.18.25s-4.19-.11-6.29-.25c-8.47-.69-16.8-2.57-24.74-5.61-7.31-2.74-14.34-6.2-20.96-10.33-3.08-1.92-6-3.72-8.73-5.66A71.3 71.3 0 0 0 50 121.25z"></path><path fill="#1e3a8a" d="M19.24 84a207.33 207.33 0 0 0 21.98 9.21c1.96.68 3.95 1.32 5.97 1.91 2.01.59 4.08 1.19 6.16 1.78 4.17 1.01 8.41 1.73 12.68 2.16 4.38.41 8.79.32 13.14-.25 4.64-.61 9.2-1.76 13.57-3.42a67.142 67.142 0 0 0 20.34-12.25c2.05-3.9 3.73-7.97 5.02-12.18l-.43.43a64.346 64.346 0 0 1-25.54 10.19c-4.57.79-9.19 1.22-13.82 1.26-4.41.04-8.82-.21-13.2-.77-4.08-.49-8.13-1.24-12.11-2.26-1.92-.5-3.81-1.05-5.66-1.6-1.85-.56-3.56-1.21-5.34-1.79-7.12-2.51-13.73-5.02-20.34-6.79-6.52-1.62-13.17-2.61-19.88-2.97-6.57-.5-13.29-.39-18.7-1.96-1.02-.28-2.02-.65-2.97-1.1.23 1.16.48 2.3.75 3.44.59.41 1.21.8 1.78 1.18 5.17 3.03 11.38 4.72 17.44 7.25 6.05 2.51 12.37 5.19 19.16 8.53zM-12.6 23.96a56.768 56.768 0 0 1 24.69-10.1 66.52 66.52 0 0 1 26.29.94c7.82 1.88 15.4 4.68 22.57 8.34l5.09 2.55 4.84 2.58c3.17 1.78 6.29 3.29 9.39 4.68a45.15 45.15 0 0 0 9.51 2.94c3.25.58 6.55.85 9.85.8 6.61 0 13.3-.89 18.54-.41.66 0 1.28.14 1.89.25-.53-2.76-1.23-5.49-2.08-8.18-4.92-3.45-10.11-6.5-15.51-9.12-2.92-1.5-5.93-2.99-9.1-4.33a84.895 84.895 0 0 0-9.92-3.56c-3.42-.94-6.96-1.78-10.69-2.69-1.82-.43-3.65-.84-5.5-1.23-1.78-.43-3.74-.84-5.63-1.21-7.8-1.68-15.75-2.64-23.72-2.87a84.819 84.819 0 0 0-25.83 3.58 65.278 65.278 0 0 0-24.42 13.84 47.369 47.369 0 0 0-4.6 4.9c-.39 1.09-.77 2.19-1.1 3.29 1.63-1.85 3.45-3.52 5.44-4.99z"></path><path fill="#1e3a8a" d="M59.42-8.93c2.12.52 4.24 1.12 6.32 1.78 2.08.66 4.15 1.53 6.18 2.39 3.99 1.75 7.87 3.73 11.63 5.93 3.67 2.07 7.12 4.08 10.37 5.86s6.34 3.38 9.28 4.86c3.56 1.78 7.04 3.56 10.15 5.47-18.03-34.97-61-48.71-95.97-30.68A71.202 71.202 0 0 0-.85.13c3.56-2.38 7.36-4.4 11.33-6.02a72.011 72.011 0 0 1 23.92-5.18c8.4-.51 16.83.21 25.02 2.14z"></path></g></svg></svg> </g></g></g></g><g transform="translate(174, 1.1783638256873843)"><g fill="#1e3a8a" transform="scale(1)"><path d="M13.69 0.53L13.69 0.53Q10.27 0.53 7.30 0.03Q4.33-0.48 2.19-1.44L2.19-1.44L2.19-8.77Q4.55-7.75 7.41-7.11Q10.27-6.47 12.83-6.47L12.83-6.47Q16.04-6.47 17.62-7.06Q19.20-7.65 19.20-9.63L19.20-9.63Q19.20-10.96 18.42-11.76Q17.65-12.57 15.91-13.18Q14.17-13.80 11.18-14.65L11.18-14.65Q7.65-15.72 5.56-17.03Q3.48-18.34 2.57-20.21Q1.66-22.09 1.66-24.81L1.66-24.81Q1.66-29.73 5.19-32.35Q8.72-34.97 15.61-34.97L15.61-34.97Q18.61-34.97 21.44-34.52Q24.28-34.06 26.04-33.48L26.04-33.48L26.04-26.10Q23.74-27.01 21.42-27.43Q19.09-27.86 16.90-27.86L16.90-27.86Q14.01-27.86 12.22-27.33Q10.43-26.79 10.43-24.87L10.43-24.87Q10.43-23.74 11.07-23.07Q11.71-22.41 13.29-21.87Q14.87-21.34 17.59-20.59L17.59-20.59Q21.82-19.47 24.06-17.89Q26.31-16.31 27.17-14.25Q28.02-12.19 28.02-9.63L28.02-9.63Q28.02-5.08 24.49-2.27Q20.96 0.53 13.69 0.53Z" transform="translate(-1.657754010695187, 34.97326203208556)"></path></g></g></g> <g fill-rule="" class="tp-slogan" fill="#1e3a8a" transform="translate(-16.494766235351562,43.864749908447266)"> <g transform="scale(1, 1)"><g transform="scale(1)"><path d="M4.86-5.52Q4.80-5.99 4.61-6.29L4.61-6.29Q4.39-6.61 4.07-6.76Q3.76-6.91 3.26-6.91L3.26-6.91Q2.45-6.91 2.12-6.56L2.12-6.56Q1.81-6.25 1.81-5.66L1.81-5.66Q1.81-5.33 1.91-5.12Q2.00-4.91 2.20-4.78L2.20-4.78Q2.48-4.57 3.14-4.51L3.14-4.51Q3.82-4.45 4.28-4.33Q4.74-4.20 5.09-3.98L5.09-3.98Q5.96-3.43 5.96-2.26L5.96-2.26Q5.96-1.80 5.78-1.39Q5.60-0.98 5.28-0.66L5.28-0.66Q4.90-0.29 4.37-0.11Q3.85 0.07 3.29 0.07L3.29 0.07Q2.02 0.07 1.26-0.65L1.26-0.65Q0.61-1.30 0.48-2.38L0.48-2.38L0.50-2.39L1.56-2.39Q1.66-1.75 1.99-1.44L1.99-1.44Q2.46-1.01 3.25-1.01L3.25-1.01Q4.01-1.01 4.45-1.36Q4.90-1.70 4.90-2.26L4.90-2.26Q4.90-2.51 4.83-2.69Q4.76-2.88 4.58-3.02L4.58-3.02Q4.18-3.34 3.06-3.42L3.06-3.42Q1.92-3.52 1.33-4.08Q0.74-4.64 0.74-5.66L0.74-5.66Q0.74-6.70 1.38-7.33L1.38-7.33Q2.05-8.00 3.25-8.00L3.25-8.00Q4.50-8.00 5.20-7.25L5.20-7.25Q5.81-6.59 5.94-5.52L5.94-5.52L4.86-5.52ZM9.74-4.92L8.84-4.92L8.84 0L7.82 0L7.82-4.92L6.92-4.92L6.92-6L7.82-6L7.82-7.98L8.84-7.98L8.84-6L9.74-6L9.74-4.92ZM14.50-5.44L13.50-4.85Q13.21-4.98 12.98-4.98L12.98-4.98Q12.50-4.98 12.19-4.64L12.19-4.64Q11.86-4.28 11.86-3.82L11.86-3.82L11.86 0L10.82 0L10.82-3.82Q10.82-4.46 11.15-5.00Q11.48-5.54 12.06-5.84L12.06-5.84Q12.49-6.05 12.98-6.05L12.98-6.05Q13.38-6.05 13.74-5.90Q14.10-5.76 14.50-5.44L14.50-5.44ZM20.44 0L19.36 0L19.36-0.91Q18.97-0.47 18.47-0.20Q17.96 0.06 17.40 0.06L17.40 0.06Q16.78 0.06 16.23-0.17Q15.68-0.40 15.26-0.82L15.26-0.82Q14.84-1.22 14.61-1.78Q14.38-2.34 14.38-2.95L14.38-2.95Q14.38-3.56 14.61-4.12Q14.84-4.68 15.26-5.10L15.26-5.10Q15.68-5.52 16.23-5.75Q16.78-5.98 17.40-5.98L17.40-5.98Q17.98-5.98 18.49-5.74Q19.00-5.50 19.36-5.06L19.36-5.06L19.36-5.86L20.44-5.86L20.44 0ZM17.40-4.91Q17.00-4.91 16.64-4.76Q16.27-4.61 16.01-4.34L16.01-4.34Q15.74-4.08 15.59-3.71Q15.44-3.35 15.44-2.95L15.44-2.95Q15.44-2.56 15.59-2.20Q15.74-1.84 16.01-1.57L16.01-1.57Q16.27-1.31 16.64-1.16Q17.00-1.01 17.40-1.01L17.40-1.01Q17.80-1.01 18.16-1.16Q18.52-1.31 18.78-1.57L18.78-1.57Q19.04-1.84 19.19-2.20Q19.34-2.56 19.34-2.95L19.34-2.95Q19.34-3.35 19.19-3.71Q19.04-4.08 18.78-4.34L18.78-4.34Q18.52-4.61 18.16-4.76Q17.80-4.91 17.40-4.91L17.40-4.91ZM24.34-4.92L23.44-4.92L23.44 0L22.42 0L22.42-4.92L21.52-4.92L21.52-6L22.42-6L22.42-7.98L23.44-7.98L23.44-6L24.34-6L24.34-4.92ZM30.95-2.54L26.09-2.54Q26.09-2.26 26.30-1.94Q26.51-1.63 26.78-1.42L26.78-1.42Q27.29-1.02 27.96-1.02L27.96-1.02Q29.03-1.02 29.70-2.05L29.70-2.05L30.61-1.51Q30.14-0.76 29.46-0.35Q28.78 0.06 27.96 0.06L27.96 0.06Q27.35 0.06 26.80-0.17Q26.24-0.41 25.82-0.83L25.82-0.83Q25.40-1.25 25.17-1.80Q24.94-2.35 24.94-2.96L24.94-2.96Q24.94-3.58 25.17-4.13Q25.40-4.69 25.82-5.11L25.82-5.11Q26.23-5.53 26.79-5.76Q27.35-5.99 27.96-5.99L27.96-5.99Q28.57-5.99 29.13-5.76Q29.69-5.53 30.10-5.11L30.10-5.11Q30.98-4.20 30.98-3L30.98-3Q30.98-2.78 30.95-2.54L30.95-2.54ZM27.96-5.00Q27.47-5.00 27.04-4.79Q26.60-4.57 26.35-4.22Q26.09-3.86 26.09-3.47L26.09-3.47L29.83-3.47Q29.83-3.86 29.57-4.22Q29.32-4.57 28.88-4.79Q28.45-5.00 27.96-5.00L27.96-5.00ZM34.85 2.56Q33.42 2.56 32.38 1.28L32.38 1.28L33.32 0.72Q33.97 1.48 34.85 1.48L34.85 1.48Q35.24 1.48 35.60 1.32Q35.96 1.16 36.23 0.89L36.23 0.89Q36.49 0.61 36.64 0.25Q36.79-0.11 36.79-0.50L36.79-0.50L36.79-0.79Q35.98 0.12 34.84 0.12L34.84 0.12Q34.22 0.12 33.67-0.14Q33.11-0.40 32.70-0.84L32.70-0.84Q32.29-1.28 32.06-1.85Q31.82-2.41 31.82-3.01L31.82-3.01Q31.82-3.62 32.06-4.17Q32.29-4.72 32.71-5.14L32.71-5.14Q33.13-5.54 33.68-5.77Q34.22-6 34.84-6L34.84-6Q35.50-6 36.01-5.71Q36.53-5.42 36.79-5.06L36.79-5.06L36.79-5.89L37.87-5.89L37.87-0.50Q37.87 0.12 37.64 0.67Q37.40 1.22 36.98 1.66L36.98 1.66Q36.58 2.08 36.02 2.32Q35.46 2.56 34.85 2.56L34.85 2.56ZM34.84-4.91Q34.44-4.91 34.08-4.76Q33.72-4.61 33.46-4.33L33.46-4.33Q33.19-4.06 33.04-3.69Q32.88-3.32 32.88-2.93L32.88-2.93Q32.88-2.53 33.04-2.17Q33.19-1.80 33.46-1.54L33.46-1.54Q33.72-1.27 34.08-1.12Q34.44-0.96 34.84-0.96L34.84-0.96Q35.23-0.96 35.59-1.12Q35.95-1.27 36.22-1.54L36.22-1.54Q36.48-1.80 36.63-2.17Q36.78-2.53 36.78-2.93L36.78-2.93Q36.78-3.32 36.63-3.69Q36.48-4.06 36.22-4.33L36.22-4.33Q35.95-4.61 35.59-4.76Q35.23-4.91 34.84-4.91L34.84-4.91ZM39.62-6.86Q39.40-6.86 39.23-7.03Q39.07-7.19 39.07-7.42L39.07-7.42Q39.07-7.64 39.23-7.81Q39.40-7.97 39.62-7.97L39.62-7.97Q39.85-7.97 40.01-7.81Q40.18-7.64 40.18-7.42L40.18-7.42Q40.18-7.19 40.01-7.03Q39.85-6.86 39.62-6.86L39.62-6.86ZM40.14 0L39.13 0L39.13-6L40.14-6L40.14 0ZM43.90 0.06Q43.28 0.06 42.74-0.17Q42.19-0.41 41.77-0.83L41.77-0.83Q41.36-1.24 41.13-1.79Q40.90-2.35 40.90-2.96L40.90-2.96Q40.90-3.58 41.13-4.13Q41.36-4.69 41.77-5.10L41.77-5.10Q42.19-5.52 42.74-5.75Q43.28-5.99 43.90-5.99L43.90-5.99Q45.31-5.99 46.30-4.79L46.30-4.79L45.36-4.25Q44.74-4.91 43.90-4.91L43.90-4.91Q43.50-4.91 43.15-4.76Q42.79-4.61 42.53-4.34L42.53-4.34Q42.26-4.08 42.11-3.72Q41.95-3.36 41.95-2.96L41.95-2.96Q41.95-2.57 42.11-2.21Q42.26-1.85 42.53-1.58L42.53-1.58Q42.79-1.32 43.15-1.17Q43.50-1.02 43.90-1.02L43.90-1.02Q44.74-1.02 45.36-1.68L45.36-1.68L46.30-1.14Q45.31 0.06 43.90 0.06L43.90 0.06ZM53.78 0L52.78 0L52.78-7.98L53.78-7.98L53.78 0ZM59.75 0L58.69 0L58.69-3.60Q58.69-4.14 58.30-4.54L58.30-4.54Q57.91-4.92 57.36-4.92L57.36-4.92Q56.82-4.92 56.42-4.52L56.42-4.52Q56.24-4.34 56.14-4.10Q56.03-3.85 56.03-3.60L56.03-3.60L56.03 0L54.98 0L54.98-5.86L56.03-5.86L56.03-5.36Q56.26-5.64 56.63-5.82Q57-6 57.36-6L57.36-6Q57.84-6 58.28-5.81Q58.72-5.63 59.05-5.29L59.05-5.29Q59.38-4.97 59.56-4.53Q59.75-4.09 59.75-3.60L59.75-3.60L59.75 0ZM63.53-4.92L62.63-4.92L62.63 0L61.61 0L61.61-4.92L60.71-4.92L60.71-6L61.61-6L61.61-7.98L62.63-7.98L62.63-6L63.53-6L63.53-4.92ZM70.14-2.54L65.28-2.54Q65.28-2.26 65.49-1.94Q65.70-1.63 65.98-1.42L65.98-1.42Q66.48-1.02 67.15-1.02L67.15-1.02Q68.22-1.02 68.89-2.05L68.89-2.05L69.80-1.51Q69.34-0.76 68.65-0.35Q67.97 0.06 67.15 0.06L67.15 0.06Q66.54 0.06 65.99-0.17Q65.44-0.41 65.02-0.83L65.02-0.83Q64.60-1.25 64.36-1.80Q64.13-2.35 64.13-2.96L64.13-2.96Q64.13-3.58 64.36-4.13Q64.60-4.69 65.02-5.11L65.02-5.11Q65.42-5.53 65.98-5.76Q66.54-5.99 67.15-5.99L67.15-5.99Q67.76-5.99 68.32-5.76Q68.88-5.53 69.29-5.11L69.29-5.11Q70.18-4.20 70.18-3L70.18-3Q70.18-2.78 70.14-2.54L70.14-2.54ZM67.15-5.00Q66.66-5.00 66.23-4.79Q65.80-4.57 65.54-4.22Q65.28-3.86 65.28-3.47L65.28-3.47L69.02-3.47Q69.02-3.86 68.77-4.22Q68.51-4.57 68.08-4.79Q67.64-5.00 67.15-5.00L67.15-5.00ZM72.22 0L71.26 0L71.26-7.98L72.22-7.98L72.22 0ZM74.38 0L73.42 0L73.42-7.98L74.38-7.98L74.38 0ZM76.13-6.86Q75.90-6.86 75.74-7.03Q75.58-7.19 75.58-7.42L75.58-7.42Q75.58-7.64 75.74-7.81Q75.90-7.97 76.13-7.97L76.13-7.97Q76.36-7.97 76.52-7.81Q76.68-7.64 76.68-7.42L76.68-7.42Q76.68-7.19 76.52-7.03Q76.36-6.86 76.13-6.86L76.13-6.86ZM76.64 0L75.64 0L75.64-6L76.64-6L76.64 0ZM80.42 2.56Q79.00 2.56 77.95 1.28L77.95 1.28L78.90 0.72Q79.55 1.48 80.42 1.48L80.42 1.48Q80.82 1.48 81.18 1.32Q81.54 1.16 81.80 0.89L81.80 0.89Q82.07 0.61 82.22 0.25Q82.37-0.11 82.37-0.50L82.37-0.50L82.37-0.79Q81.55 0.12 80.41 0.12L80.41 0.12Q79.80 0.12 79.24-0.14Q78.68-0.40 78.28-0.84L78.28-0.84Q77.87-1.28 77.63-1.85Q77.40-2.41 77.40-3.01L77.40-3.01Q77.40-3.62 77.63-4.17Q77.87-4.72 78.29-5.14L78.29-5.14Q78.71-5.54 79.25-5.77Q79.80-6 80.41-6L80.41-6Q81.07-6 81.59-5.71Q82.10-5.42 82.37-5.06L82.37-5.06L82.37-5.89L83.45-5.89L83.45-0.50Q83.45 0.12 83.21 0.67Q82.98 1.22 82.56 1.66L82.56 1.66Q82.15 2.08 81.59 2.32Q81.04 2.56 80.42 2.56L80.42 2.56ZM80.41-4.91Q80.02-4.91 79.66-4.76Q79.30-4.61 79.03-4.33L79.03-4.33Q78.77-4.06 78.61-3.69Q78.46-3.32 78.46-2.93L78.46-2.93Q78.46-2.53 78.61-2.17Q78.77-1.80 79.03-1.54L79.03-1.54Q79.30-1.27 79.66-1.12Q80.02-0.96 80.41-0.96L80.41-0.96Q80.81-0.96 81.17-1.12Q81.53-1.27 81.79-1.54L81.79-1.54Q82.06-1.80 82.21-2.17Q82.36-2.53 82.36-2.93L82.36-2.93Q82.36-3.32 82.21-3.69Q82.06-4.06 81.79-4.33L81.79-4.33Q81.53-4.61 81.17-4.76Q80.81-4.91 80.41-4.91L80.41-4.91ZM90.54-2.54L85.68-2.54Q85.68-2.26 85.89-1.94Q86.10-1.63 86.38-1.42L86.38-1.42Q86.88-1.02 87.55-1.02L87.55-1.02Q88.62-1.02 89.29-2.05L89.29-2.05L90.20-1.51Q89.74-0.76 89.05-0.35Q88.37 0.06 87.55 0.06L87.55 0.06Q86.94 0.06 86.39-0.17Q85.84-0.41 85.42-0.83L85.42-0.83Q85.00-1.25 84.76-1.80Q84.53-2.35 84.53-2.96L84.53-2.96Q84.53-3.58 84.76-4.13Q85.00-4.69 85.42-5.11L85.42-5.11Q85.82-5.53 86.38-5.76Q86.94-5.99 87.55-5.99L87.55-5.99Q88.16-5.99 88.72-5.76Q89.28-5.53 89.69-5.11L89.69-5.11Q90.58-4.20 90.58-3L90.58-3Q90.58-2.78 90.54-2.54L90.54-2.54ZM87.55-5.00Q87.06-5.00 86.63-4.79Q86.20-4.57 85.94-4.22Q85.68-3.86 85.68-3.47L85.68-3.47L89.42-3.47Q89.42-3.86 89.17-4.22Q88.91-4.57 88.48-4.79Q88.04-5.00 87.55-5.00L87.55-5.00ZM96.42 0L95.36 0L95.36-3.60Q95.36-4.14 94.97-4.54L94.97-4.54Q94.58-4.92 94.03-4.92L94.03-4.92Q93.49-4.92 93.10-4.52L93.10-4.52Q92.92-4.34 92.81-4.10Q92.70-3.85 92.70-3.60L92.70-3.60L92.70 0L91.66 0L91.66-5.86L92.70-5.86L92.70-5.36Q92.93-5.64 93.30-5.82Q93.67-6 94.03-6L94.03-6Q94.51-6 94.95-5.81Q95.39-5.63 95.72-5.29L95.72-5.29Q96.05-4.97 96.23-4.53Q96.42-4.09 96.42-3.60L96.42-3.60L96.42 0ZM100.38 0.06Q99.77 0.06 99.22-0.17Q98.68-0.41 98.26-0.83L98.26-0.83Q97.85-1.24 97.61-1.79Q97.38-2.35 97.38-2.96L97.38-2.96Q97.38-3.58 97.61-4.13Q97.85-4.69 98.26-5.10L98.26-5.10Q98.68-5.52 99.22-5.75Q99.77-5.99 100.38-5.99L100.38-5.99Q101.80-5.99 102.78-4.79L102.78-4.79L101.84-4.25Q101.22-4.91 100.38-4.91L100.38-4.91Q99.98-4.91 99.63-4.76Q99.28-4.61 99.01-4.34L99.01-4.34Q98.75-4.08 98.59-3.72Q98.44-3.36 98.44-2.96L98.44-2.96Q98.44-2.57 98.59-2.21Q98.75-1.85 99.01-1.58L99.01-1.58Q99.28-1.32 99.63-1.17Q99.98-1.02 100.38-1.02L100.38-1.02Q101.22-1.02 101.84-1.68L101.84-1.68L102.78-1.14Q101.80 0.06 100.38 0.06L100.38 0.06ZM109.39-2.54L104.53-2.54Q104.53-2.26 104.74-1.94Q104.95-1.63 105.23-1.42L105.23-1.42Q105.73-1.02 106.40-1.02L106.40-1.02Q107.47-1.02 108.14-2.05L108.14-2.05L109.06-1.51Q108.59-0.76 107.90-0.35Q107.22 0.06 106.40 0.06L106.40 0.06Q105.79 0.06 105.24-0.17Q104.69-0.41 104.27-0.83L104.27-0.83Q103.85-1.25 103.61-1.80Q103.38-2.35 103.38-2.96L103.38-2.96Q103.38-3.58 103.61-4.13Q103.85-4.69 104.27-5.11L104.27-5.11Q104.68-5.53 105.23-5.76Q105.79-5.99 106.40-5.99L106.40-5.99Q107.02-5.99 107.57-5.76Q108.13-5.53 108.54-5.11L108.54-5.11Q109.43-4.20 109.43-3L109.43-3Q109.43-2.78 109.39-2.54L109.39-2.54ZM106.40-5.00Q105.91-5.00 105.48-4.79Q105.05-4.57 104.79-4.22Q104.53-3.86 104.53-3.47L104.53-3.47L108.28-3.47Q108.28-3.86 108.02-4.22Q107.76-4.57 107.33-4.79Q106.90-5.00 106.40-5.00L106.40-5.00ZM118.73-4.99L117.48-4.99L117.48 0L116.47 0L116.47-4.99L115.91-4.99L115.91-6L116.48-6Q116.51-6.58 116.81-7.03Q117.12-7.49 117.62-7.74Q118.13-7.99 118.73-7.99L118.73-7.99L118.73-6.96Q118.22-6.98 117.88-6.71Q117.54-6.43 117.52-6L117.52-6L118.73-6L118.73-4.99ZM122.12 0.06Q121.51 0.06 120.96-0.18Q120.41-0.42 119.99-0.84L119.99-0.84Q119.57-1.26 119.33-1.81Q119.09-2.36 119.09-2.98L119.09-2.98Q119.09-3.60 119.33-4.16Q119.57-4.73 119.99-5.15L119.99-5.15Q120.41-5.57 120.96-5.80Q121.51-6.04 122.12-6.04L122.12-6.04Q122.75-6.04 123.31-5.80Q123.88-5.57 124.30-5.15L124.30-5.15Q124.72-4.73 124.95-4.16Q125.18-3.60 125.18-2.98L125.18-2.98Q125.18-2.36 124.95-1.81Q124.72-1.26 124.30-0.84L124.30-0.84Q123.88-0.42 123.31-0.18Q122.75 0.06 122.12 0.06L122.12 0.06ZM122.12-4.97Q121.32-4.97 120.74-4.39L120.74-4.39Q120.47-4.12 120.31-3.74Q120.16-3.37 120.16-2.98L120.16-2.98Q120.16-2.58 120.31-2.22Q120.47-1.86 120.74-1.58L120.74-1.58Q121.02-1.31 121.37-1.15Q121.73-1.00 122.12-1.00L122.12-1.00Q122.52-1.00 122.89-1.15Q123.26-1.31 123.53-1.58L123.53-1.58Q123.79-1.86 123.95-2.22Q124.10-2.58 124.10-2.98L124.10-2.98Q124.10-3.37 123.95-3.74Q123.79-4.12 123.53-4.39L123.53-4.39Q123.26-4.67 122.90-4.82Q122.53-4.97 122.12-4.97L122.12-4.97ZM129.94-5.44L128.94-4.85Q128.65-4.98 128.42-4.98L128.42-4.98Q127.94-4.98 127.63-4.64L127.63-4.64Q127.30-4.28 127.30-3.82L127.30-3.82L127.30 0L126.26 0L126.26-3.82Q126.26-4.46 126.59-5.00Q126.92-5.54 127.50-5.84L127.50-5.84Q127.93-6.05 128.42-6.05L128.42-6.05Q128.82-6.05 129.18-5.90Q129.54-5.76 129.94-5.44L129.94-5.44ZM140.30 0.05Q139.49 0.05 138.76-0.26Q138.02-0.58 137.47-1.14L137.47-1.14Q136.92-1.69 136.61-2.42Q136.30-3.16 136.30-3.98L136.30-3.98Q136.30-4.81 136.60-5.54Q136.91-6.28 137.47-6.84L137.47-6.84Q138.02-7.39 138.76-7.70Q139.49-8.02 140.30-8.02L140.30-8.02Q141.20-8.02 142.01-7.63Q142.81-7.25 143.45-6.49L143.45-6.49L142.63-5.80Q141.65-6.92 140.30-6.92L140.30-6.92Q139.72-6.92 139.18-6.70Q138.65-6.47 138.24-6.06L138.24-6.06Q137.83-5.65 137.60-5.12Q137.38-4.58 137.38-3.98L137.38-3.98Q137.38-3.38 137.60-2.85Q137.83-2.32 138.24-1.91L138.24-1.91Q138.65-1.50 139.18-1.27Q139.72-1.04 140.30-1.04L140.30-1.04Q141.65-1.04 142.63-2.17L142.63-2.17L143.45-1.48Q142.80-0.72 142.00-0.34Q141.20 0.05 140.30 0.05L140.30 0.05ZM147.20 0.06Q146.59 0.06 146.04-0.18Q145.49-0.42 145.07-0.84L145.07-0.84Q144.65-1.26 144.41-1.81Q144.17-2.36 144.17-2.98L144.17-2.98Q144.17-3.60 144.41-4.16Q144.65-4.73 145.07-5.15L145.07-5.15Q145.49-5.57 146.04-5.80Q146.59-6.04 147.20-6.04L147.20-6.04Q147.83-6.04 148.39-5.80Q148.96-5.57 149.38-5.15L149.38-5.15Q149.80-4.73 150.03-4.16Q150.26-3.60 150.26-2.98L150.26-2.98Q150.26-2.36 150.03-1.81Q149.80-1.26 149.38-0.84L149.38-0.84Q148.96-0.42 148.39-0.18Q147.83 0.06 147.20 0.06L147.20 0.06ZM147.20-4.97Q146.40-4.97 145.82-4.39L145.82-4.39Q145.55-4.12 145.39-3.74Q145.24-3.37 145.24-2.98L145.24-2.98Q145.24-2.58 145.39-2.22Q145.55-1.86 145.82-1.58L145.82-1.58Q146.10-1.31 146.45-1.15Q146.81-1.00 147.20-1.00L147.20-1.00Q147.60-1.00 147.97-1.15Q148.34-1.31 148.61-1.58L148.61-1.58Q148.87-1.86 149.03-2.22Q149.18-2.58 149.18-2.98L149.18-2.98Q149.18-3.37 149.03-3.74Q148.87-4.12 148.61-4.39L148.61-4.39Q148.34-4.67 147.98-4.82Q147.61-4.97 147.20-4.97L147.20-4.97ZM159.32 0L158.24 0L158.24-3.76Q158.24-4.25 157.90-4.58Q157.56-4.92 157.07-4.92L157.07-4.92Q156.59-4.92 156.23-4.58L156.23-4.58Q155.88-4.26 155.88-3.77L155.88-3.77L155.88 0L154.79 0L154.79-3.77Q154.79-4.27 154.45-4.58L154.45-4.58Q154.09-4.92 153.60-4.92L153.60-4.92Q153.12-4.92 152.78-4.58L152.78-4.58Q152.42-4.22 152.42-3.73L152.42-3.73L152.42 0L151.34 0L151.34-5.86L152.42-5.86L152.42-5.41Q152.63-5.66 152.96-5.83Q153.29-6 153.60-6L153.60-6Q154.13-6 154.57-5.79Q155.00-5.58 155.33-5.21L155.33-5.21Q155.65-5.58 156.10-5.79Q156.54-6 157.07-6L157.07-6Q157.54-6 157.94-5.83Q158.35-5.66 158.66-5.35L158.66-5.35Q158.98-5.04 159.15-4.63Q159.32-4.21 159.32-3.76L159.32-3.76L159.32 0ZM163.56 0.11Q162.88 0.11 162.42-0.11Q161.96-0.34 161.59-0.82L161.59-0.82L161.59 2.56L160.52 2.56L160.52-5.86L161.59-5.86L161.59-5.02Q161.96-5.47 162.48-5.75Q163.00-6.02 163.56-6.02L163.56-6.02Q164.17-6.02 164.73-5.79Q165.29-5.56 165.70-5.12L165.70-5.12Q166.12-4.69 166.35-4.13Q166.58-3.58 166.58-2.95L166.58-2.95Q166.58-2.33 166.35-1.78Q166.12-1.22 165.70-0.79L165.70-0.79Q165.29-0.37 164.73-0.13Q164.17 0.11 163.56 0.11L163.56 0.11ZM163.56-4.93Q163.16-4.93 162.80-4.78Q162.44-4.63 162.18-4.36L162.18-4.36Q161.92-4.08 161.76-3.71Q161.60-3.35 161.60-2.95L161.60-2.95Q161.60-2.56 161.76-2.20Q161.92-1.84 162.18-1.56L162.18-1.56Q162.44-1.28 162.80-1.13Q163.16-0.97 163.56-0.97L163.56-0.97Q163.96-0.97 164.32-1.13Q164.68-1.28 164.94-1.56L164.94-1.56Q165.20-1.84 165.35-2.20Q165.50-2.56 165.50-2.95L165.50-2.95Q165.50-3.35 165.35-3.71Q165.20-4.08 164.94-4.36L164.94-4.36Q164.68-4.63 164.32-4.78Q163.96-4.93 163.56-4.93L163.56-4.93ZM168.62 0L167.66 0L167.66-7.98L168.62-7.98L168.62 0ZM175.72-2.54L170.86-2.54Q170.86-2.26 171.07-1.94Q171.28-1.63 171.55-1.42L171.55-1.42Q172.06-1.02 172.73-1.02L172.73-1.02Q173.80-1.02 174.47-2.05L174.47-2.05L175.38-1.51Q174.91-0.76 174.23-0.35Q173.54 0.06 172.73 0.06L172.73 0.06Q172.12 0.06 171.56-0.17Q171.01-0.41 170.59-0.83L170.59-0.83Q170.17-1.25 169.94-1.80Q169.70-2.35 169.70-2.96L169.70-2.96Q169.70-3.58 169.94-4.13Q170.17-4.69 170.59-5.11L170.59-5.11Q171.00-5.53 171.56-5.76Q172.12-5.99 172.73-5.99L172.73-5.99Q173.34-5.99 173.90-5.76Q174.46-5.53 174.86-5.11L174.86-5.11Q175.75-4.20 175.75-3L175.75-3Q175.75-2.78 175.72-2.54L175.72-2.54ZM172.73-5.00Q172.24-5.00 171.80-4.79Q171.37-4.57 171.11-4.22Q170.86-3.86 170.86-3.47L170.86-3.47L174.60-3.47Q174.60-3.86 174.34-4.22Q174.08-4.57 173.65-4.79Q173.22-5.00 172.73-5.00L172.73-5.00ZM181.18-6L179.32-2.93L181.10 0L179.86 0L178.70-1.91L177.54 0L176.32 0L178.08-2.93L176.23-6L177.46-6L178.70-3.95L179.94-6L181.18-6ZM189.72 0L187.66 0L187.66-7.99L189.72-7.99Q190.52-7.99 191.24-7.69Q191.96-7.38 192.52-6.83L192.52-6.83Q193.06-6.26 193.36-5.54Q193.67-4.81 193.67-4.00L193.67-4.00Q193.67-3.18 193.36-2.45Q193.06-1.73 192.52-1.18L192.52-1.18Q191.96-0.61 191.24-0.31Q190.52 0 189.72 0L189.72 0ZM189.72-6.91L188.74-6.91L188.74-1.08L189.72-1.08Q190.30-1.08 190.83-1.31Q191.36-1.54 191.76-1.93L191.76-1.93Q192.16-2.34 192.38-2.87Q192.60-3.41 192.60-4.00L192.60-4.00Q192.60-4.58 192.38-5.12Q192.16-5.65 191.76-6.06L191.76-6.06Q191.36-6.46 190.83-6.68Q190.30-6.91 189.72-6.91L189.72-6.91ZM200.40-2.54L195.54-2.54Q195.54-2.26 195.75-1.94Q195.96-1.63 196.24-1.42L196.24-1.42Q196.74-1.02 197.41-1.02L197.41-1.02Q198.48-1.02 199.15-2.05L199.15-2.05L200.06-1.51Q199.60-0.76 198.91-0.35Q198.23 0.06 197.41 0.06L197.41 0.06Q196.80 0.06 196.25-0.17Q195.70-0.41 195.28-0.83L195.28-0.83Q194.86-1.25 194.62-1.80Q194.39-2.35 194.39-2.96L194.39-2.96Q194.39-3.58 194.62-4.13Q194.86-4.69 195.28-5.11L195.28-5.11Q195.68-5.53 196.24-5.76Q196.80-5.99 197.41-5.99L197.41-5.99Q198.02-5.99 198.58-5.76Q199.14-5.53 199.55-5.11L199.55-5.11Q200.44-4.20 200.44-3L200.44-3Q200.44-2.78 200.40-2.54L200.40-2.54ZM197.41-5.00Q196.92-5.00 196.49-4.79Q196.06-4.57 195.80-4.22Q195.54-3.86 195.54-3.47L195.54-3.47L199.28-3.47Q199.28-3.86 199.03-4.22Q198.77-4.57 198.34-4.79Q197.90-5.00 197.41-5.00L197.41-5.00ZM204.28 0.06Q203.66 0.06 203.12-0.17Q202.57-0.41 202.15-0.83L202.15-0.83Q201.74-1.24 201.51-1.79Q201.28-2.35 201.28-2.96L201.28-2.96Q201.28-3.58 201.51-4.13Q201.74-4.69 202.15-5.10L202.15-5.10Q202.57-5.52 203.12-5.75Q203.66-5.99 204.28-5.99L204.28-5.99Q205.69-5.99 206.68-4.79L206.68-4.79L205.74-4.25Q205.12-4.91 204.28-4.91L204.28-4.91Q203.88-4.91 203.53-4.76Q203.17-4.61 202.91-4.34L202.91-4.34Q202.64-4.08 202.49-3.72Q202.33-3.36 202.33-2.96L202.33-2.96Q202.33-2.57 202.49-2.21Q202.64-1.85 202.91-1.58L202.91-1.58Q203.17-1.32 203.53-1.17Q203.88-1.02 204.28-1.02L204.28-1.02Q205.12-1.02 205.74-1.68L205.74-1.68L206.68-1.14Q205.69 0.06 204.28 0.06L204.28 0.06ZM208.31-6.86Q208.08-6.86 207.92-7.03Q207.76-7.19 207.76-7.42L207.76-7.42Q207.76-7.64 207.92-7.81Q208.08-7.97 208.31-7.97L208.31-7.97Q208.54-7.97 208.70-7.81Q208.86-7.64 208.86-7.42L208.86-7.42Q208.86-7.19 208.70-7.03Q208.54-6.86 208.31-6.86L208.31-6.86ZM208.82 0L207.82 0L207.82-6L208.82-6L208.82 0ZM212.72-4.21Q212.69-4.43 212.57-4.62L212.57-4.62Q212.34-5.02 211.67-5.02L211.67-5.02Q211.31-5.02 211.12-4.93L211.12-4.93Q210.86-4.84 210.74-4.66Q210.61-4.48 210.61-4.26L210.61-4.26Q210.61-4.00 210.80-3.78L210.80-3.78Q211.01-3.55 211.46-3.54L211.46-3.54Q212.27-3.50 212.77-3.35Q213.26-3.19 213.53-2.81Q213.80-2.42 213.80-1.73L213.80-1.73Q213.80-1.02 213.26-0.50L213.26-0.50Q213-0.25 212.65-0.10Q212.29 0.06 211.91 0.06L211.91 0.06L211.73 0.06Q210.77 0.06 210.18-0.49L210.18-0.49Q209.70-0.94 209.58-1.74L209.58-1.74L210.65-1.74Q210.71-1.45 210.89-1.27L210.89-1.27Q211.16-1.01 211.66-1.01L211.66-1.01Q211.79-1.01 211.85-1.02L211.85-1.02Q212.27-1.04 212.51-1.25Q212.75-1.46 212.75-1.78L212.75-1.78Q212.75-2.21 212.48-2.34L212.48-2.34Q212.22-2.47 211.46-2.47L211.46-2.47Q210.52-2.47 210.01-3.07L210.01-3.07Q209.60-3.53 209.60-4.22L209.60-4.22Q209.60-4.38 209.62-4.46L209.62-4.46Q209.71-5.24 210.26-5.66Q210.80-6.07 211.70-6.07L211.70-6.07Q212.36-6.07 212.86-5.78L212.86-5.78Q213.20-5.57 213.46-5.18L213.46-5.18Q213.70-4.80 213.77-4.22L213.77-4.22L213.74-4.21L212.72-4.21ZM215.44-6.86Q215.21-6.86 215.05-7.03Q214.88-7.19 214.88-7.42L214.88-7.42Q214.88-7.64 215.05-7.81Q215.21-7.97 215.44-7.97L215.44-7.97Q215.66-7.97 215.83-7.81Q215.99-7.64 215.99-7.42L215.99-7.42Q215.99-7.19 215.83-7.03Q215.66-6.86 215.44-6.86L215.44-6.86ZM215.95 0L214.94 0L214.94-6L215.95-6L215.95 0ZM219.74 0.06Q219.13 0.06 218.58-0.18Q218.03-0.42 217.61-0.84L217.61-0.84Q217.19-1.26 216.95-1.81Q216.71-2.36 216.71-2.98L216.71-2.98Q216.71-3.60 216.95-4.16Q217.19-4.73 217.61-5.15L217.61-5.15Q218.03-5.57 218.58-5.80Q219.13-6.04 219.74-6.04L219.74-6.04Q220.37-6.04 220.93-5.80Q221.50-5.57 221.92-5.15L221.92-5.15Q222.34-4.73 222.57-4.16Q222.80-3.60 222.80-2.98L222.80-2.98Q222.80-2.36 222.57-1.81Q222.34-1.26 221.92-0.84L221.92-0.84Q221.50-0.42 220.93-0.18Q220.37 0.06 219.74 0.06L219.74 0.06ZM219.74-4.97Q218.94-4.97 218.36-4.39L218.36-4.39Q218.09-4.12 217.93-3.74Q217.78-3.37 217.78-2.98L217.78-2.98Q217.78-2.58 217.93-2.22Q218.09-1.86 218.36-1.58L218.36-1.58Q218.64-1.31 218.99-1.15Q219.35-1.00 219.74-1.00L219.74-1.00Q220.14-1.00 220.51-1.15Q220.88-1.31 221.15-1.58L221.15-1.58Q221.41-1.86 221.57-2.22Q221.72-2.58 221.72-2.98L221.72-2.98Q221.72-3.37 221.57-3.74Q221.41-4.12 221.15-4.39L221.15-4.39Q220.88-4.67 220.52-4.82Q220.15-4.97 219.74-4.97L219.74-4.97ZM228.65 0L227.59 0L227.59-3.60Q227.59-4.14 227.20-4.54L227.20-4.54Q226.81-4.92 226.26-4.92L226.26-4.92Q225.72-4.92 225.32-4.52L225.32-4.52Q225.14-4.34 225.04-4.10Q224.93-3.85 224.93-3.60L224.93-3.60L224.93 0L223.88 0L223.88-5.86L224.93-5.86L224.93-5.36Q225.16-5.64 225.53-5.82Q225.90-6 226.26-6L226.26-6Q226.74-6 227.18-5.81Q227.62-5.63 227.95-5.29L227.95-5.29Q228.28-4.97 228.46-4.53Q228.65-4.09 228.65-3.60L228.65-3.60L228.65 0ZM232.75-4.21Q232.72-4.43 232.60-4.62L232.60-4.62Q232.37-5.02 231.70-5.02L231.70-5.02Q231.34-5.02 231.14-4.93L231.14-4.93Q230.89-4.84 230.77-4.66Q230.64-4.48 230.64-4.26L230.64-4.26Q230.64-4.00 230.83-3.78L230.83-3.78Q231.04-3.55 231.49-3.54L231.49-3.54Q232.30-3.50 232.79-3.35Q233.29-3.19 233.56-2.81Q233.83-2.42 233.83-1.73L233.83-1.73Q233.83-1.02 233.29-0.50L233.29-0.50Q233.03-0.25 232.67-0.10Q232.32 0.06 231.94 0.06L231.94 0.06L231.76 0.06Q230.80 0.06 230.21-0.49L230.21-0.49Q229.73-0.94 229.61-1.74L229.61-1.74L230.68-1.74Q230.74-1.45 230.92-1.27L230.92-1.27Q231.19-1.01 231.68-1.01L231.68-1.01Q231.82-1.01 231.88-1.02L231.88-1.02Q232.30-1.04 232.54-1.25Q232.78-1.46 232.78-1.78L232.78-1.78Q232.78-2.21 232.51-2.34L232.51-2.34Q232.25-2.47 231.49-2.47L231.49-2.47Q230.54-2.47 230.04-3.07L230.04-3.07Q229.63-3.53 229.63-4.22L229.63-4.22Q229.63-4.38 229.64-4.46L229.64-4.46Q229.74-5.24 230.29-5.66Q230.83-6.07 231.73-6.07L231.73-6.07Q232.39-6.07 232.88-5.78L232.88-5.78Q233.23-5.57 233.48-5.18L233.48-5.18Q233.72-4.80 233.80-4.22L233.80-4.22L233.77-4.21L232.75-4.21Z" transform="translate(-0.48, 8.016)"></path></g></g></g></g><defs v-gra="od"></defs></g></svg>